<svg
  width="19"
  height="19"
  viewBox="0 0 19 19"
  fill="none"
  xmlns="http://www.w3.org/2000/svg"
>
  <path
    d="M18.5875 0.25V4.41762H17.754V6.08466H16.9204V6.91818H16.0869V6.08466H15.2534V5.25113H14.4199V4.41762H13.5863V3.58409H12.7528V2.75057H11.9193V1.91704H12.7528V1.08353H14.4199V0.25H18.5875Z"
    fill="currentColor"
  />
  <path
    d="M8.58525 10.2524V11.9195H7.75175V12.753H6.91818V13.5865H6.08467V14.4201H5.25114V15.2536H3.5841V13.5865H4.41762V12.753H5.25114V11.9195H6.08467V11.086H6.91818V10.2524H8.58525Z"
    fill="currentColor"
  />
  <path
    d="M15.2534 6.91802V6.08466L14.4199 6.0845V5.25113L13.5863 5.25098V4.41762L12.7528 4.41745V3.58409L11.9193 3.58393V2.75057L11.0858 2.75041V3.58393H10.2522V4.41745H9.41875V5.25098H8.58525V6.0845H7.75167V6.91802H2.75057V7.75158H1.91704V8.58508H1.08353V9.41858H0.25V11.0857H3.58409V10.2521H4.41762V9.41858H5.25113V8.58508H6.08466V7.75158H6.91818V8.58508H6.08466V9.41858H5.25113V11.0857L6.08467 11.086L6.08466 10.2521L6.91818 10.2524V9.41858H9.41875V11.9192L8.58525 11.9195V12.7527L7.75175 12.753L7.75167 13.5862H9.41875V12.7527H10.2522V11.9192H11.0858V12.7527H10.2522V13.5862H9.41875V14.4198H8.58525V15.2533H7.75167V18.5873H9.41875V17.7538H10.2522V16.9203H11.0858V16.0868H11.9193V11.0857H12.7528V10.2521H13.5863V9.41858H14.4199V8.58508H15.2534V7.75158H16.0869V6.91818L15.2534 6.91802ZM13.5863 6.0845V7.75158H12.7528V8.58508H11.0858V7.75158H10.2522V6.0845H11.0858V5.25098H12.7528V6.0845H13.5863Z"
    fill="currentColor"
  />
</svg>
